<svg width="150" height="26" viewBox="0 0 150 26" fill="none" xmlns="http://www.w3.org/2000/svg">
<path d="M12.1326 8.30599H15.4571L19.0215 21.1803H19.09L21.4206 10.4863L19.6727 10.3825V7.61382H26.5615V10.2787L25.4305 10.3479C24.9736 10.394 24.6651 10.6709 24.5052 11.1785L21.2492 25.0218H16.3139L13.5035 14.7085H13.4007L10.4875 25.0218H5.4494L1.98783 11.2131C1.87359 10.8901 1.74792 10.6709 1.61083 10.5555C1.49659 10.4402 1.29095 10.3709 0.993915 10.3479L0 10.2787V7.61382H7.8485V10.3825L5.92922 10.4863L8.29405 21.1111H8.3626L12.1326 8.30599Z" fill="#0E7490"/>
<path d="M42.3617 8.30599V21.1803C42.3617 21.5494 42.4188 21.8032 42.5331 21.9417C42.6702 22.0801 42.8986 22.1608 43.2185 22.1839L44.3153 22.2531V25.0218H38.8659V23.0145L38.763 22.9799C37.6206 24.6411 36.0555 25.4717 34.0676 25.4717C31.7371 25.4717 30.012 24.7219 28.8924 23.2222C27.7728 21.7225 27.2131 19.669 27.2131 17.0619C27.2131 13.9241 27.9671 11.4784 29.4751 9.72493C30.9831 7.97144 33.2451 7.0947 36.2611 7.0947C38.2032 7.0947 40.2368 7.49846 42.3617 8.30599ZM38.386 19.5191V10.5555C37.7463 10.2556 36.8666 10.1056 35.747 10.1056C34.2162 10.1056 33.108 10.7286 32.4225 11.9745C31.7371 13.2204 31.3944 14.87 31.3944 16.9235C31.3944 20.6611 32.5825 22.53 34.9587 22.53C35.9641 22.53 36.7866 22.2301 37.4264 21.6302C38.0662 21.0072 38.386 20.3035 38.386 19.5191Z" fill="#0E7490"/>
<path d="M47.8039 21.1457V4.29143C47.8039 3.92227 47.7353 3.66848 47.5982 3.53004C47.484 3.39161 47.2669 3.31086 46.9471 3.28779L45.7475 3.21857V0.346083H51.8481V9.65571C53.0362 7.94837 54.7042 7.0947 56.8519 7.0947C58.5884 7.0947 59.9251 7.60229 60.8619 8.61746C61.8215 9.60957 62.3013 11.1093 62.3013 13.1165V22.1493L64.2549 22.2531V25.0218H56.0979V22.3916L57.2289 22.2877C57.5717 22.2416 57.823 22.1493 57.9829 22.0109C58.1429 21.8494 58.2229 21.561 58.2229 21.1457V14.0164C58.2229 12.8166 58.0286 11.8937 57.6402 11.2477C57.2746 10.6017 56.5435 10.2787 55.4467 10.2787C54.3729 10.2787 53.5046 10.6247 52.842 11.3169C52.2022 11.986 51.8824 12.8051 51.8824 13.7741V22.1493L53.8359 22.2531V25.0218H45.679V22.3916L46.81 22.2877C47.1527 22.2416 47.404 22.1493 47.564 22.0109C47.7239 21.8494 47.8039 21.561 47.8039 21.1457Z" fill="#0E7490"/>
<path d="M72.3985 0.346083V22.1493L74.352 22.2531V25.0218H66.1951V22.3916L67.3261 22.2877C67.9887 22.2185 68.32 21.8494 68.32 21.1803V4.11839C68.32 3.6108 68.0344 3.33393 67.4632 3.28779L66.2636 3.21857V0.346083H72.3985Z" fill="#0E7490"/>
<path d="M77.038 23.9835V4.11839C77.038 3.58773 76.7524 3.31086 76.1812 3.28779L74.9816 3.21857V0.346083H81.0137V8.54825C82.0418 7.57922 83.4242 7.0947 85.1607 7.0947C87.3084 7.0947 89.0107 7.83301 90.2673 9.30963C91.524 10.7632 92.1524 12.8166 92.1524 15.4699C92.1524 22.1378 89.3877 25.4717 83.8583 25.4717C82.6702 25.4717 81.4135 25.3217 80.0883 25.0218C78.7859 24.7449 77.7692 24.3988 77.038 23.9835ZM81.0137 12.7705V21.734C81.8819 22.1954 82.8872 22.4262 84.0297 22.4262C86.6344 22.4262 87.9368 20.292 87.9368 16.0236C87.9368 12.1244 86.6573 10.1748 84.0982 10.1748C83.2757 10.1748 82.5559 10.4171 81.939 10.9016C81.3221 11.3861 81.0137 12.0091 81.0137 12.7705Z" fill="#0E7490"/>
<path d="M96.6992 21.1457V11.5592C96.6992 11.19 96.6306 10.9362 96.4935 10.7978C96.3793 10.6363 96.1622 10.544 95.8423 10.5209L94.4029 10.4171V7.61382H100.195V10.2094C100.606 9.30963 101.246 8.57132 102.114 7.99451C102.983 7.39464 103.976 7.0947 105.096 7.0947C106.238 7.0947 107.324 7.34849 108.352 7.85608V13.0127L105.165 13.255V11.663C105.165 11.2015 105.05 10.9131 104.822 10.7978C104.57 10.6824 104.262 10.6247 103.896 10.6247C102.983 10.6247 102.229 10.9593 101.634 11.6284C101.063 12.2744 100.778 13.105 100.778 14.1202V22.1493L103.759 22.2877V25.0218H94.5742V22.3916L95.7052 22.2877C96.048 22.2416 96.2993 22.1493 96.4592 22.0109C96.6192 21.8494 96.6992 21.561 96.6992 21.1457Z" fill="#0E7490"/>
<path d="M116.609 7.61382V22.1493L118.562 22.2531V25.0218H110.405V22.3916L111.536 22.2877C112.199 22.2185 112.53 21.8494 112.53 21.1803V11.5592C112.53 11.1669 112.462 10.9016 112.325 10.7632C112.21 10.6247 111.993 10.5555 111.673 10.5555L110.474 10.4863V7.61382H116.609ZM112.29 4.63751C111.811 4.15299 111.571 3.54158 111.571 2.80327C111.571 2.06496 111.811 1.45355 112.29 0.969032C112.77 0.461445 113.399 0.207651 114.175 0.207651C114.952 0.207651 115.581 0.461445 116.06 0.969032C116.563 1.45355 116.814 2.06496 116.814 2.80327C116.814 3.54158 116.563 4.15299 116.06 4.63751C115.581 5.09895 114.952 5.32968 114.175 5.32968C113.399 5.32968 112.77 5.09895 112.29 4.63751Z" fill="#0E7490"/>
<path d="M129.149 7.0947C130.863 7.0947 132.222 7.52153 133.228 8.37521C134.233 9.2058 134.736 10.3825 134.736 11.9053C134.736 12.9204 134.519 13.8202 134.084 14.6047C133.65 15.3661 133.113 15.966 132.474 16.4043C131.834 16.8427 131.057 17.2003 130.143 17.4772C128.612 17.9386 126.887 18.1693 124.968 18.1693C125.036 19.3922 125.413 20.3843 126.099 21.1457C126.784 21.884 127.835 22.2531 129.252 22.2531C130.669 22.2531 132.085 21.7455 133.502 20.7304L134.804 23.5336C134.347 23.9489 133.57 24.3758 132.474 24.8141C131.4 25.2525 130.166 25.4717 128.772 25.4717C125.985 25.4717 123.94 24.6988 122.637 23.1529C121.335 21.584 120.684 19.4383 120.684 16.7158C120.684 13.9933 121.426 11.7091 122.912 9.86336C124.397 8.01759 126.476 7.0947 129.149 7.0947ZM127.573 15.02C128.418 14.8585 129.195 14.5239 129.903 14.0164C130.611 13.4857 130.966 12.8627 130.966 12.1475C130.966 10.7401 130.28 10.0364 128.909 10.0364C127.63 10.0364 126.647 10.5555 125.962 11.5938C125.276 12.609 124.899 13.8318 124.831 15.2623C125.836 15.2392 126.75 15.1584 127.573 15.02Z" fill="#0E7490"/>
<path d="M139.307 21.1457V10.5209H136.359V7.61382H139.307V6.29871C139.307 4.03763 139.821 2.41104 140.849 1.41894C141.809 0.47298 143.214 0 145.065 0C146.915 0 148.561 0.403764 150 1.21129L149.006 3.97995C147.909 3.40315 146.881 3.11475 145.922 3.11475C144.962 3.11475 144.299 3.357 143.934 3.84152C143.568 4.30296 143.385 5.0182 143.385 5.98723V7.61382H148.458V10.5209H143.385V22.1147L146.264 22.2531V25.0218H137.182V22.3916L138.313 22.2877C138.656 22.2416 138.907 22.1493 139.067 22.0109C139.227 21.8494 139.307 21.561 139.307 21.1457Z" fill="#0E7490"/>
</svg>
