<svg width="720" height="1024" viewBox="0 0 720 1024" fill="none" xmlns="http://www.w3.org/2000/svg">
<g opacity="0.5">
<mask id="mask0" mask-type="alpha" maskUnits="userSpaceOnUse" x="0" y="0" width="720" height="1024">
<rect width="720" height="1024" fill="#F1F5F9"/>
</mask>
<g mask="url(#mask0)">
<path opacity="0.1" d="M735.665 0.315798C766.678 6.83513 734.681 -30.4294 724.973 -33.2262C703.199 -48.7878 673.868 -64.7732 642.752 -74.2458C579.26 -99.3648 513.082 -81.5866 447.139 -82.3559C361.514 -83.7575 289.743 -136.773 226.786 -179.298C156.468 -228.083 86.8025 -280.491 -0.432739 -313.121" stroke="url(#paint0_linear)" stroke-miterlimit="10"/>
<path opacity="0.1" d="M735.795 11.5814C766.54 18.6354 734.772 -17.5665 724.771 -19.8613C702.742 -34.6341 672.929 -50.2805 641.474 -59.3489C577.943 -83.8421 511.791 -65.8356 445.978 -66.0442C360.569 -66.7418 289.025 -118.297 226.12 -159.558C155.979 -206.999 86.3262 -257.973 -0.882935 -289.794" stroke="url(#paint1_linear)" stroke-miterlimit="10"/>
<path opacity="0.1" d="M735.919 22.8141C766.397 30.4091 734.856 -4.7301 724.569 -6.52292C702.286 -20.5134 671.984 -35.8208 640.196 -44.485C576.626 -68.3523 510.5 -50.1177 444.818 -49.7591C359.617 -49.7591 288.354 -99.8602 225.488 -139.856C155.496 -185.968 85.8567 -235.456 -1.31335 -266.442" stroke="url(#paint2_linear)" stroke-miterlimit="10"/>
<path opacity="0.1" d="M736.05 34.0533C766.241 42.1764 734.948 8.139 724.374 6.83513C701.83 -6.37304 671.046 -21.3414 638.918 -29.5949C575.309 -52.8429 509.184 -34.3866 443.658 -33.4544C358.672 -32.7438 287.624 -81.4041 224.856 -120.162C155.014 -164.91 85.3812 -212.945 -1.73669 -243.103" stroke="url(#paint3_linear)" stroke-miterlimit="10"/>
<path opacity="0.1" d="M736.18 45.2993C766.111 53.9504 735.033 20.9561 724.172 20.1803C701.354 7.75443 670.107 -6.87496 637.634 -14.7242C573.992 -37.3463 507.899 -18.6358 442.497 -17.1625C357.746 -15.7543 286.92 -62.9543 224.223 -100.427C154.525 -143.846 84.9052 -190.394 -2.16699 -219.731" stroke="url(#paint4_linear)" stroke-miterlimit="10"/>
<path opacity="0.1" d="M736.31 56.5323C765.967 65.7115 735.124 33.7863 723.969 33.5125C700.923 21.869 669.168 7.58513 636.356 0.146571C572.681 -21.8497 506.621 -2.9501 441.336 -0.883475C356.774 1.23531 286.215 -44.5174 223.591 -80.7192C154.075 -122.795 84.4355 -167.883 -2.59106 -196.418" stroke="url(#paint5_linear)" stroke-miterlimit="10"/>
<path opacity="0.1" d="M736.441 67.7651C765.824 77.4789 735.209 46.6294 723.767 46.8576C700.467 35.9964 668.229 22.0515 635.104 15.0171C571.391 -6.35326 505.37 12.7745 440.176 15.4083C355.823 18.2312 285.512 -26.0677 222.952 -61.0114C153.554 -101.738 83.96 -145.398 -3.04053 -173.098" stroke="url(#paint6_linear)" stroke-miterlimit="10"/>
<path opacity="0.1" d="M736.565 79.0045C765.68 89.2464 735.3 59.4465 723.572 60.2027C700.011 50.1238 667.29 36.5245 633.801 29.8943C570.048 9.1433 504.066 28.4992 439.016 31.7002C354.877 35.2272 284.808 -7.62441 222.32 -41.3163C153.071 -80.6801 83.4841 -122.899 -3.4447 -149.739" stroke="url(#paint7_linear)" stroke-miterlimit="10"/>
<path opacity="0.1" d="M736.695 90.2437C765.537 101.02 735.391 72.3024 723.37 73.5476C699.554 64.2511 666.351 50.9907 632.516 44.7648C568.731 24.6396 502.781 44.2172 437.855 47.9853C353.925 52.2164 284.103 10.8251 221.687 -21.5955C152.589 -59.6228 83.0144 -100.362 -3.87524 -126.4" stroke="url(#paint8_linear)" stroke-miterlimit="10"/>
<path opacity="0.1" d="M736.825 101.483C765.393 112.787 735.476 85.1389 723.135 86.8861C699.065 78.3784 665.38 65.4571 631.212 59.6418C567.388 40.136 501.432 59.9417 436.669 64.2771C352.947 69.2122 283.373 29.2682 221.029 -1.88114C152.119 -38.5654 82.5383 -77.8444 -4.29919 -103.061" stroke="url(#paint9_linear)" stroke-miterlimit="10"/>
<path opacity="0.1" d="M736.956 112.716C765.25 124.555 735.561 97.9822 722.966 100.231C698.649 92.4995 664.468 79.9236 629.961 74.5126C566.071 55.6065 500.167 75.6665 435.535 80.5691C352.029 86.2083 282.696 47.7116 220.397 17.827C151.618 -17.5078 82.0695 -55.333 -4.72888 -79.7218" stroke="url(#paint10_linear)" stroke-miterlimit="10"/>
<path opacity="0.1" d="M737.086 123.955C765.119 136.342 735.646 110.819 722.744 113.576C698.166 106.627 663.503 94.39 628.657 89.3897C564.767 71.1356 498.85 91.3846 434.381 96.8543C351.077 103.204 281.985 66.1548 219.79 37.5284C151.135 3.5757 81.5933 -32.8152 -5.15295 -56.4022" stroke="url(#paint11_linear)" stroke-miterlimit="10"/>
<path opacity="0.1" d="M737.21 135.194C764.963 148.09 735.737 123.655 722.568 126.921C697.735 120.754 662.59 108.856 627.385 104.26C563.489 86.6254 497.579 107.109 433.22 113.146C350.131 120.193 281.28 84.6044 219.151 57.2428C150.646 24.607 81.1173 -10.2975 -5.58337 -33.037" stroke="url(#paint12_linear)" stroke-miterlimit="10"/>
<path opacity="0.1" d="M737.34 146.434C764.819 159.857 735.821 136.498 722.346 140.26C697.259 134.881 661.631 123.31 626.101 119.137C562.127 102.128 496.268 122.827 432.04 129.438C349.179 137.222 280.55 103.047 218.519 76.957C150.163 45.6642 80.6477 12.2135 -6.00732 -9.69794" stroke="url(#paint13_linear)" stroke-miterlimit="10"/>
<path opacity="0.1" d="M737.471 157.673C764.676 171.625 735.913 149.335 722.164 153.605C696.823 149.002 660.713 137.789 624.843 134.008C560.83 117.625 494.998 138.572 430.9 145.743C348.234 154.172 279.899 121.491 217.887 96.6653C149.681 66.722 80.1723 34.7316 -6.43701 13.6415" stroke="url(#paint14_linear)" stroke-miterlimit="10"/>
<path opacity="0.1" d="M737.601 168.906C764.533 183.398 735.997 162.171 721.955 166.95C696.353 163.13 659.76 152.255 623.552 148.885C559.513 133.121 493.732 154.276 429.739 161.995C347.282 171.155 279.142 139.921 217.254 116.36C149.192 87.7662 79.6961 57.2362 -6.86108 36.9676" stroke="url(#paint15_linear)" stroke-miterlimit="10"/>
<path opacity="0.1" d="M737.732 180.145C764.389 195.14 736.089 175.008 721.766 180.295C695.917 177.257 658.835 166.729 622.287 163.756C558.196 148.618 492.429 169.995 428.578 178.294C346.337 188.158 278.464 158.371 216.622 136.068C148.71 108.843 79.2266 79.7606 -7.2915 60.2939" stroke="url(#paint16_linear)" stroke-miterlimit="10"/>
<path opacity="0.1" d="M737.856 191.385C764.246 206.933 736.174 187.851 721.557 193.634C695.48 191.385 657.89 181.195 620.997 178.639C556.879 164.114 491.125 185.719 427.418 194.592C345.385 205.166 277.76 176.827 216.009 155.795C148.208 129.901 78.7511 102.278 -7.71484 83.6591" stroke="url(#paint17_linear)" stroke-miterlimit="10"/>
<path opacity="0.1" d="M737.986 202.624C764.103 218.7 736.265 200.668 721.362 206.979C695.004 205.512 656.951 195.661 619.725 193.503C555.562 179.598 489.821 201.444 426.258 210.89C344.44 222.162 277.056 195.277 215.357 175.503C147.739 150.958 78.2817 124.796 -8.14514 106.998" stroke="url(#paint18_linear)" stroke-miterlimit="10"/>
<path opacity="0.1" d="M738.117 213.857C763.959 230.468 736.35 213.524 721.166 220.324C694.548 219.633 656.012 210.128 618.448 208.381C554.245 195.107 488.517 217.162 425.097 227.189C343.488 239.152 276.352 213.72 214.705 195.244C147.243 172.048 77.7993 147.347 -8.58191 130.377" stroke="url(#paint19_linear)" stroke-miterlimit="10"/>
<path opacity="0.1" d="M738.247 225.096C763.815 242.235 736.441 226.4 720.964 233.669C694.091 233.76 655.073 224.594 617.169 223.238C552.928 210.591 487.246 232.874 423.936 243.448C342.536 256.128 275.641 232.144 214.085 214.9C146.773 193.073 77.3294 169.819 -8.99963 153.683" stroke="url(#paint20_linear)" stroke-miterlimit="10"/>
<path opacity="0.1" d="M738.371 236.316C763.672 253.983 736.526 239.184 720.769 246.988C693.642 247.868 654.141 239.041 615.899 238.109C551.618 226.08 485.962 248.592 422.783 259.733C341.598 273.124 274.944 250.606 213.46 234.614C146.285 214.15 76.8605 192.343 -9.42285 177.022" stroke="url(#paint21_linear)" stroke-miterlimit="10"/>
<path opacity="0.1" d="M738.501 247.575C763.529 265.777 736.617 252.04 720.56 260.352C693.179 262.015 653.196 253.527 614.608 252.999C550.294 241.603 484.664 264.329 421.635 276.045C340.659 290.133 274.253 269.056 212.841 254.342C145.822 235.188 76.4041 214.861 -9.83362 200.362" stroke="url(#paint22_linear)" stroke-miterlimit="10"/>
<path opacity="0.1" d="M738.631 258.807C763.405 277.544 736.676 264.877 720.377 273.698C692.742 276.142 652.27 267.993 613.343 267.876C548.991 257.099 483.386 280.054 420.468 292.336C339.707 307.129 273.542 287.499 212.202 274.082C145.326 256.278 75.9476 237.404 -10.264 223.733" stroke="url(#paint23_linear)" stroke-miterlimit="10"/>
<path opacity="0.1" d="M738.762 270.047C763.242 289.311 736.806 277.72 720.162 287.043C692.272 290.263 651.318 282.479 612.052 282.746C547.661 272.596 482.083 295.785 419.295 308.622C338.742 324.125 272.825 305.949 211.556 293.764C144.831 277.303 75.4392 259.864 -10.7008 247.04" stroke="url(#paint24_linear)" stroke-miterlimit="10"/>
<path opacity="0.1" d="M738.892 281.299C763.098 301.092 736.878 290.57 719.986 300.394C691.842 304.404 650.405 296.946 610.8 297.63C546.344 288.092 480.792 311.497 418.108 324.914C337.771 341.121 272.075 324.392 210.891 313.472C144.322 298.36 74.9371 282.408 -11.1572 270.379" stroke="url(#paint25_linear)" stroke-miterlimit="10"/>
<path opacity="0.1" d="M739.016 292.525C762.955 312.846 736.962 303.393 719.758 313.726C691.36 318.518 649.434 311.399 609.49 312.494C545.027 303.589 479.494 327.221 416.974 341.179C336.845 358.084 271.417 342.816 210.311 333.154C143.885 319.392 74.5198 304.899 -11.5289 293.699" stroke="url(#paint26_linear)" stroke-miterlimit="10"/>
<path opacity="0.1" d="M739.147 303.765C762.812 324.627 737.054 316.236 719.589 327.072C690.903 332.646 648.528 325.865 608.238 327.365C543.736 319.085 478.23 342.94 415.84 357.491C335.926 375.093 270.739 361.285 209.679 352.888C143.403 340.501 74.0767 327.463 -11.9785 317.064" stroke="url(#paint27_linear)" stroke-miterlimit="10"/>
<path opacity="0.1" d="M739.277 314.998C762.668 336.388 737.138 329.073 719.36 340.423C690.453 346.773 647.556 340.338 606.934 342.248C542.393 334.588 476.913 358.671 414.653 373.789C334.948 392.128 270.009 379.741 209.02 372.603C142.895 361.52 73.542 349.954 -12.4089 340.404" stroke="url(#paint28_linear)" stroke-miterlimit="10"/>
<path opacity="0.1" d="M739.407 326.237C762.525 348.155 737.23 341.883 719.158 353.755C689.997 360.926 646.618 354.798 605.657 357.112C541.076 350.078 475.622 374.389 413.493 390.074C334.009 409.078 269.298 398.178 208.388 392.31C142.406 382.59 73.0726 372.472 -12.8196 363.743" stroke="url(#paint29_linear)" stroke-miterlimit="10"/>
<path opacity="0.1" d="M739.512 337.476C762.329 359.922 737.288 354.746 718.93 367.1C689.515 375.021 645.653 369.265 604.353 371.99C539.733 365.581 474.305 390.107 412.306 406.36C333.025 426.087 268.568 416.621 207.729 412.018C141.884 403.648 72.5706 394.983 -13.276 387.082" stroke="url(#paint30_linear)" stroke-miterlimit="10"/>
<path opacity="0.1" d="M739.662 348.716C762.238 371.69 737.406 367.622 718.761 380.445C689.085 389.148 644.74 383.705 603.095 386.86C538.442 381.077 473.041 405.831 411.172 422.651C332.099 443.083 267.89 435.038 207.117 431.726C141.441 424.724 72.121 417.501 -13.693 410.421" stroke="url(#paint31_linear)" stroke-miterlimit="10"/>
<path opacity="0.1" d="M739.792 359.948C762.095 383.457 737.491 380.426 718.558 393.79C688.628 403.276 643.801 398.197 601.817 401.737C537.125 396.574 471.75 421.556 410.011 438.943C331.128 460.079 267.186 453.514 206.484 451.441C140.952 445.762 71.6515 440.019 -14.1234 433.76" stroke="url(#paint32_linear)" stroke-miterlimit="10"/>
<path opacity="0.1" d="M739.922 371.188C761.957 395.225 737.582 393.262 718.356 407.129C688.172 417.397 642.856 412.664 600.539 416.608C535.808 412.045 470.458 437.274 408.87 455.229C330.221 477.068 266.501 471.957 205.871 471.149C140.469 466.82 71.1754 462.537 -14.5474 457.106" stroke="url(#paint33_linear)" stroke-miterlimit="10"/>
<path opacity="0.1" d="M740.052 382.427C761.814 406.992 737.666 406.105 718.154 420.474C687.722 431.524 641.917 427.137 599.261 431.485C534.491 427.573 469.161 452.999 407.69 471.52C329.256 494.064 265.777 490.426 205.219 490.857C139.987 487.877 70.7057 485.048 -14.9714 480.426" stroke="url(#paint34_linear)" stroke-miterlimit="10"/>
<path opacity="0.1" d="M740.163 393.667C761.677 418.766 737.738 418.942 717.939 433.819C687.246 445.652 640.959 441.603 597.983 446.356C533.181 443.096 467.877 468.717 406.537 487.812C328.305 511.06 265.067 508.85 204.594 510.565C139.505 508.935 70.2367 507.566 -15.3948 503.785" stroke="url(#paint35_linear)" stroke-miterlimit="10"/>
<path opacity="0.1" d="M740.307 404.899C761.527 430.533 737.843 431.778 717.756 447.164C686.809 459.779 640.039 456.07 596.699 461.233C531.858 458.56 466.58 484.442 405.37 504.104C327.359 528.056 264.369 527.293 203.922 530.279C138.983 529.992 69.7216 530.083 -15.8577 527.124" stroke="url(#paint36_linear)" stroke-miterlimit="10"/>
<path opacity="0.1" d="M740.437 416.139C761.384 442.301 737.934 444.615 717.554 460.47C686.353 473.9 639.114 470.536 595.434 476.104C530.554 474.057 465.302 500.166 404.222 520.389C326.421 545.046 263.678 545.737 203.336 549.987C138.546 551.05 69.298 552.595 -16.2422 550.463" stroke="url(#paint37_linear)" stroke-miterlimit="10"/>
<path opacity="0.1" d="M740.567 427.378C761.24 454.068 738.018 457.458 717.352 473.848C685.896 488.027 638.162 485.002 594.136 490.981C529.217 489.559 463.991 515.884 403.042 536.681C325.462 562.041 262.948 564.186 202.677 569.695C138.037 572.107 68.802 575.113 -16.686 573.802" stroke="url(#paint38_linear)" stroke-miterlimit="10"/>
<path opacity="0.1" d="M740.698 438.617C761.097 465.835 738.09 470.295 717.157 487.193C685.44 502.155 637.223 499.469 592.866 505.851C527.907 505.056 462.707 531.609 401.888 552.973C324.51 579.05 262.251 582.629 202.051 589.403C137.562 593.164 68.3331 597.63 -17.1093 597.148" stroke="url(#paint39_linear)" stroke-miterlimit="10"/>
<path opacity="0.1" d="M740.815 449.857C760.941 477.603 738.208 483.105 716.942 500.538C684.997 516.282 636.271 513.935 591.568 520.748C526.577 520.572 461.403 547.353 400.715 569.278C323.546 596.053 261.534 601.092 201.406 609.137C137.06 614.242 67.8507 620.161 -17.546 620.507" stroke="url(#paint40_linear)" stroke-miterlimit="10"/>
<path opacity="0.1" d="M740.952 461.089C760.81 489.37 738.286 495.974 716.752 513.896C684.534 530.429 635.339 528.421 590.277 535.618C525.247 536.068 460.093 563.071 399.541 585.57C322.613 613.042 260.816 619.542 200.76 628.845C136.564 635.299 67.3614 642.679 -17.9897 643.839" stroke="url(#paint41_linear)" stroke-miterlimit="10"/>
<path opacity="0.1" d="M741.083 472.316C760.641 501.131 738.371 508.824 716.55 527.209C684.078 544.518 634.407 542.855 589.026 550.463C523.956 551.532 458.828 578.764 398.407 601.829C321.661 630.006 260.138 637.953 200.154 648.521C136.108 656.344 66.9184 665.164 -18.3871 667.153" stroke="url(#paint42_linear)" stroke-miterlimit="10"/>
<path opacity="0.1" d="M741.213 483.568C760.523 512.905 738.455 521.647 716.355 540.567C683.621 558.658 633.462 557.341 587.748 565.34C522.639 567.035 457.537 594.488 397.247 618.147C320.716 647.034 259.434 656.428 199.522 668.261C135.632 677.388 66.4425 687.714 -18.8174 690.524" stroke="url(#paint43_linear)" stroke-miterlimit="10"/>
<path opacity="0.1" d="M741.344 494.807C760.38 524.679 738.547 534.484 716.153 553.912C683.165 572.785 632.523 571.807 586.464 580.224C521.323 582.538 456.247 610.213 396.099 634.419C319.777 664.004 258.743 674.839 198.902 687.956C135.15 698.452 65.9797 710.206 -19.228 713.844" stroke="url(#paint44_linear)" stroke-miterlimit="10"/>
<path opacity="0.1" d="M741.467 506.04C760.236 536.446 738.631 547.327 715.95 567.25C682.702 586.912 631.584 586.273 585.185 595.094C519.992 598.034 454.955 625.944 394.925 650.711C318.818 680.999 258.026 693.321 198.25 707.664C134.654 719.509 65.4967 732.724 -19.6719 737.183" stroke="url(#paint45_linear)" stroke-miterlimit="10"/>
<path opacity="0.1" d="M741.598 517.299C760.093 548.233 738.723 560.183 715.749 580.615C682.259 601.06 630.645 600.76 583.908 609.985C518.715 613.551 453.665 641.682 393.765 667.016C317.867 698.015 257.322 711.764 197.618 727.391C134.165 740.586 65.0213 755.261 -20.1277 760.549" stroke="url(#paint46_linear)" stroke-miterlimit="10"/>
<path opacity="0.1" d="M741.728 528.519C759.95 559.981 738.807 573.001 715.553 593.941C681.802 615.161 629.706 615.207 582.63 624.842C517.378 629.034 452.374 657.387 392.605 683.288C316.922 714.992 256.611 730.227 196.986 747.08C133.683 761.624 64.5453 777.721 -20.5255 783.868" stroke="url(#paint47_linear)" stroke-miterlimit="10"/>
<path opacity="0.1" d="M741.858 539.758C759.806 571.755 738.898 585.843 715.35 607.285C681.346 629.288 628.767 629.673 581.352 639.713C516.061 644.53 451.076 673.111 391.444 699.58C315.97 731.981 255.907 748.638 196.353 766.794C133.2 782.682 64.0756 800.271 -20.9496 807.214" stroke="url(#paint48_linear)" stroke-miterlimit="10"/>
<path opacity="0.1" d="M741.989 550.991C759.663 583.522 738.983 598.68 715.149 620.624C680.89 643.442 627.79 644.139 580.068 654.59C514.744 660.027 449.786 688.829 390.284 715.871C315.018 748.983 255.203 767.094 195.721 786.508C132.712 803.745 63.6001 822.795 -21.3729 830.553" stroke="url(#paint49_linear)" stroke-miterlimit="10"/>
<path opacity="0.1" d="M742.119 562.23C759.526 595.29 739.081 611.517 714.953 633.943C680.44 657.517 626.89 658.58 578.797 669.434C513.434 675.497 448.501 704.528 389.136 732.131C314.079 765.946 254.505 785.504 195.095 806.184C132.235 824.77 63.1369 845.3 -21.797 853.86" stroke="url(#paint50_linear)" stroke-miterlimit="10"/>
<path opacity="0.1" d="M742.243 573.47C759.376 607.057 739.159 624.32 714.751 647.314C679.977 671.664 625.944 673.072 577.512 684.337C512.11 691.02 447.204 720.278 387.969 748.449C313.147 782.962 253.821 803.974 194.449 825.918C131.746 845.854 62.6545 867.817 -22.2338 877.225" stroke="url(#paint51_linear)" stroke-miterlimit="10"/>
<path opacity="0.1" d="M742.373 584.709C759.232 618.825 739.25 637.196 714.549 660.653C679.527 685.791 625.006 687.538 576.235 699.208C510.793 706.516 445.913 735.997 386.809 764.734C312.175 799.938 253.091 822.423 193.836 845.632C131.251 866.911 62.198 890.335 -22.6055 900.564" stroke="url(#paint52_linear)" stroke-miterlimit="10"/>
<path opacity="0.1" d="M742.504 595.948C759.089 630.592 739.336 650.059 714.347 673.998C679.071 699.919 624.067 702.031 574.957 714.085C509.477 722.013 444.623 751.721 385.649 781.026C311.224 816.954 252.387 840.867 193.191 865.34C130.782 887.969 61.7159 912.853 -23.0811 923.91" stroke="url(#paint53_linear)" stroke-miterlimit="10"/>
<path opacity="0.1" d="M742.635 607.181C758.933 642.386 739.427 662.869 714.145 687.369C678.615 714.098 623.129 716.504 573.673 728.982C508.16 737.535 443.332 767.446 384.488 797.344C310.279 833.95 251.683 859.31 192.54 885.048C130.28 909.026 61.2207 935.364 -23.5242 947.249" stroke="url(#paint54_linear)" stroke-miterlimit="10"/>
<path opacity="0.1" d="M742.771 618.421C758.815 654.133 739.512 675.712 713.962 700.688C678.171 728.174 622.203 730.944 572.408 743.833C506.856 753.012 442.021 783.164 383.347 813.59C309.346 850.92 251.005 877.74 191.94 904.737C129.823 930.064 60.7771 957.863 -23.9221 970.582" stroke="url(#paint55_linear)" stroke-miterlimit="10"/>
<path opacity="0.1" d="M742.889 629.66C758.659 665.901 739.629 688.549 713.747 714.027C677.702 742.294 621.251 745.411 571.117 758.704C505.526 768.483 440.731 798.889 382.167 829.895C308.382 867.935 250.275 896.203 191.288 924.471C129.354 951.141 60.2883 980.4 -24.3652 993.928" stroke="url(#paint56_linear)" stroke-miterlimit="10"/>
<path opacity="0.1" d="M743.019 640.899C758.516 677.668 739.688 701.386 713.545 727.372C677.246 756.422 620.319 759.877 569.839 773.581C504.209 784.012 439.453 814.607 381.007 846.186C307.43 884.931 249.564 914.64 190.642 944.179C128.82 972.212 59.7994 1002.91 -24.802 1017.27" stroke="url(#paint57_linear)" stroke-miterlimit="10"/>
<path opacity="0.1" d="M743.149 652.132C758.372 689.436 739.772 714.222 713.343 740.717C676.795 770.549 619.367 774.343 568.555 788.451C502.892 799.502 438.168 830.331 379.846 862.478C306.478 901.94 248.86 933.096 190.016 963.873C128.35 993.21 59.3427 1025.42 -25.2196 1040.59" stroke="url(#paint58_linear)" stroke-miterlimit="10"/>
<path opacity="0.1" d="M743.28 663.371C758.229 701.183 739.864 727.065 713.148 754.062C676.339 784.702 618.428 788.81 567.277 803.328C501.576 814.998 436.891 846.056 378.686 878.763C305.533 918.916 248.156 951.539 189.384 983.594C127.868 1014.32 58.8933 1047.97 -25.6429 1063.94" stroke="url(#paint59_linear)" stroke-miterlimit="10"/>
<path opacity="0.1" d="M743.423 674.611C758.104 712.97 739.968 739.902 712.965 767.4C675.902 798.804 617.508 803.257 566.019 818.199C500.278 830.495 435.599 861.774 377.545 895.055C304.6 935.912 247.471 969.982 188.771 1003.28C127.398 1035.34 58.3842 1070.43 -26.0542 1087.26" stroke="url(#paint60_linear)" stroke-miterlimit="10"/>
<path opacity="0.1" d="M743.534 685.85C757.942 724.744 740.04 752.738 712.743 780.745C675.426 812.925 616.55 817.743 564.722 833.076C498.948 845.991 434.289 877.499 376.385 911.347C303.655 952.908 246.767 988.432 188.139 1023.02C126.896 1056.45 57.9218 1092.96 -26.5101 1110.63" stroke="url(#paint61_linear)" stroke-miterlimit="10"/>
<path opacity="0.1" d="M743.664 697.083C757.798 736.512 740.124 765.581 712.541 794.09C674.97 827.052 615.611 832.215 563.444 847.947C497.598 861.487 432.992 893.223 375.204 927.632C302.716 969.897 246.043 1006.9 187.487 1042.76C126.414 1077.52 57.4455 1115.53 -26.9277 1134.03" stroke="url(#paint62_linear)" stroke-miterlimit="10"/>
<path opacity="0.1" d="M743.795 708.316C757.655 748.273 740.216 778.412 712.346 807.41C674.533 841.154 614.673 846.656 562.16 862.824C496.314 876.991 431.701 908.942 374.044 943.925C301.738 986.893 245.346 1025.32 186.855 1062.43C125.925 1098.55 56.97 1138.01 -27.3511 1157.31" stroke="url(#paint63_linear)" stroke-miterlimit="10"/>
<path opacity="0.1" d="M743.925 719.562C757.511 760.047 740.3 791.274 712.143 820.774C674.064 855.327 613.734 861.148 560.894 877.695C495.004 892.487 430.423 924.634 372.896 960.216C300.799 1003.9 244.648 1043.77 186.228 1082.13C125.455 1119.59 56.4936 1160.5 -27.7688 1180.63" stroke="url(#paint64_linear)" stroke-miterlimit="10"/>
<path opacity="0.1" d="M744.075 730.801C757.4 771.814 740.417 804.091 711.967 834.119C673.633 869.428 612.814 875.615 559.63 892.571C493.7 907.983 429.145 940.384 371.749 976.501C299.867 1020.88 243.97 1062.21 185.609 1101.86C124.979 1140.66 56.0503 1183.04 -28.1794 1203.99" stroke="url(#paint65_linear)" stroke-miterlimit="10"/>
<path opacity="0.1" d="M744.18 742.04C757.218 783.581 740.477 816.934 711.739 847.464C673.151 883.555 611.85 890.081 558.326 907.442C492.357 923.479 427.829 956.109 370.57 992.793C298.896 1037.87 243.227 1080.65 184.958 1121.56C124.478 1161.72 55.5618 1205.56 -28.6289 1227.33" stroke="url(#paint66_linear)" stroke-miterlimit="10"/>
<path opacity="0.1" d="M744.31 753.299C757.088 795.375 740.568 829.797 711.544 860.868C672.695 897.741 610.911 904.606 557.035 922.378C491.034 939.035 426.531 971.925 369.396 1009.14C297.938 1054.93 242.51 1099.16 184.312 1141.34C123.982 1182.84 55.0728 1228.13 -29.0657 1250.73" stroke="url(#paint67_linear)" stroke-miterlimit="10"/>
<path opacity="0.1" d="M744.44 764.512C756.944 807.123 740.652 842.607 711.342 874.148C672.226 911.81 609.972 919.014 555.764 937.19C489.723 954.473 425.247 987.552 368.242 1025.37C296.992 1071.87 241.813 1117.55 183.686 1160.97C123.506 1203.82 54.6034 1250.57 -29.496 1274" stroke="url(#paint68_linear)" stroke-miterlimit="10"/>
<path opacity="0.1" d="M744.564 775.751C756.8 818.89 740.743 855.45 711.139 887.493C671.782 925.957 609.033 933.48 554.486 952.034C488.406 969.943 423.949 1003.25 367.081 1041.64C296.02 1088.84 241.108 1135.97 183.053 1180.67C123.017 1224.87 54.1336 1273.08 -29.9137 1297.32" stroke="url(#paint69_linear)" stroke-miterlimit="10"/>
<path opacity="0.1" d="M744.727 786.991C756.69 830.67 740.861 868.287 710.97 900.838C671.365 940.058 608.128 947.947 553.241 966.937C487.09 985.465 422.672 1019 365.954 1057.95C295.128 1105.85 240.437 1154.44 182.454 1200.4C122.535 1245.95 53.6778 1295.62 -30.3434 1320.69" stroke="url(#paint70_linear)" stroke-miterlimit="10"/>
<path opacity="0.1" d="M744.825 798.224C756.514 842.425 740.913 881.124 710.742 914.183C670.876 954.186 607.156 962.426 551.931 981.808C485.773 1000.96 421.368 1034.72 364.761 1074.25C294.143 1122.85 239.7 1172.88 181.783 1220.12C122.052 1267.01 53.1822 1318.13 -30.7477 1344.03" stroke="url(#paint71_linear)" stroke-miterlimit="10"/>
<path opacity="0.1" d="M744.955 809.463C756.37 854.192 741.004 893.96 710.54 927.522C670.42 968.313 606.23 976.886 550.646 996.685C484.456 1016.46 420.077 1050.44 363.6 1090.56C293.191 1139.88 238.996 1191.37 181.15 1239.86C121.563 1288.1 52.7191 1340.68 -31.1978 1367.4" stroke="url(#paint72_linear)" stroke-miterlimit="10"/>
<path opacity="0.1" d="M745.086 820.702C756.227 865.959 741.096 906.803 710.338 940.867C669.963 982.44 605.272 991.352 549.369 1011.56C483.139 1031.96 418.786 1066.17 362.44 1106.82C292.246 1156.83 238.292 1209.78 180.55 1259.53C121.114 1309.12 52.2695 1363.19 -31.5887 1390.71" stroke="url(#paint73_linear)" stroke-miterlimit="10"/>
<path opacity="0.1" d="M745.209 831.942C756.084 877.727 741.18 919.64 710.135 954.212C669.507 996.588 604.333 1005.82 548.091 1026.43C481.822 1047.46 417.496 1081.89 361.279 1123.11C291.301 1173.83 237.588 1228.22 179.885 1279.24C120.599 1330.18 51.7675 1385.67 -32.0516 1414.05" stroke="url(#paint74_linear)" stroke-miterlimit="10"/>
<path opacity="0.1" d="M745.34 843.175C755.94 889.501 741.265 932.489 709.94 967.557C669.05 1010.69 603.394 1020.29 546.813 1041.3C480.505 1062.95 416.205 1097.61 360.119 1139.4C290.329 1190.82 236.871 1246.67 179.253 1298.97C120.109 1351.25 51.2913 1408.21 -32.4756 1437.41" stroke="url(#paint75_linear)" stroke-miterlimit="10"/>
<path opacity="0.1" d="M745.47 854.414C755.797 901.268 741.356 945.319 709.738 980.889C668.601 1024.81 602.455 1034.74 545.529 1056.17C479.188 1078.44 414.907 1113.32 358.958 1155.69C289.403 1207.84 236.173 1265.11 178.62 1318.67C119.627 1372.3 50.8415 1430.72 -32.9059 1460.74" stroke="url(#paint76_linear)" stroke-miterlimit="10"/>
<path opacity="0.1" d="M745.601 865.653C755.653 913.036 741.441 958.156 709.536 994.241C668.144 1038.94 601.517 1049.22 544.251 1071.05C477.871 1093.95 413.617 1129.07 357.798 1171.98C288.452 1224.79 235.469 1283.56 177.982 1338.37C119.138 1393.35 50.3463 1453.23 -33.3293 1484.07" stroke="url(#paint77_linear)" stroke-miterlimit="10"/>
<path opacity="0.1" d="M745.731 876.893C755.51 924.803 741.532 970.993 709.333 1007.59C667.688 1053.07 600.578 1063.65 542.973 1085.93C476.554 1109.44 412.326 1144.78 356.637 1188.28C287.533 1241.82 234.765 1302.02 177.356 1358.09C118.682 1414.42 49.8767 1475.76 -33.7533 1507.42" stroke="url(#paint78_linear)" stroke-miterlimit="10"/>
<path opacity="0.1" d="M745.855 888.132C755.366 936.571 741.617 983.829 709.138 1020.93C667.231 1067.22 599.613 1078.15 541.695 1100.8C475.237 1124.92 411.035 1160.5 355.477 1204.56C286.554 1258.8 234.061 1320.45 176.717 1377.79C118.173 1435.47 49.3941 1498.26 -34.1837 1530.75" stroke="url(#paint79_linear)" stroke-miterlimit="10"/>
<path opacity="0.1" d="M745.985 899.365C755.223 948.338 741.708 996.672 708.936 1034.27C666.775 1081.32 598.694 1092.62 540.417 1115.68C473.92 1140.45 409.744 1176.22 354.316 1220.85C285.603 1275.79 233.357 1338.89 176.084 1397.53C117.684 1456.55 48.9573 1520.81 -34.614 1554.11" stroke="url(#paint80_linear)" stroke-miterlimit="10"/>
<path opacity="0.1" d="M746.116 910.604C755.08 960.112 741.793 1009.51 708.734 1047.61C666.319 1095.45 597.755 1107.09 539.133 1130.55C472.636 1155.97 408.453 1191.95 353.156 1237.14C284.658 1292.79 232.653 1357.34 175.452 1417.21C117.202 1477.6 48.4622 1543.29 -35.0375 1577.43" stroke="url(#paint81_linear)" stroke-miterlimit="10"/>
<path opacity="0.1" d="M746.246 921.843C754.936 971.879 741.884 1022.35 708.531 1060.96C665.869 1109.57 596.816 1121.56 537.855 1145.42C471.286 1171.44 407.162 1207.66 351.996 1253.43C283.706 1309.78 231.949 1375.78 174.82 1436.92C116.719 1498.64 47.9796 1565.81 -35.4679 1600.77" stroke="url(#paint82_linear)" stroke-miterlimit="10"/>
<path opacity="0.1" d="M746.376 933.083C754.793 983.646 741.969 1035.19 708.336 1074.3C665.412 1123.7 595.877 1136.02 536.577 1160.29C469.969 1186.93 405.865 1223.39 350.835 1269.72C282.76 1326.78 231.244 1394.24 174.161 1456.63C116.204 1519.7 47.4773 1588.32 -35.918 1624.11" stroke="url(#paint83_linear)" stroke-miterlimit="10"/>
<path opacity="0.1" d="M746.5 944.316C754.65 995.414 742.061 1048.03 708.134 1087.64C664.957 1137.84 594.939 1150.49 535.3 1175.17C468.653 1202.43 404.574 1239.11 349.675 1286C281.809 1343.76 230.534 1412.67 173.549 1476.37C115.748 1540.76 47.028 1610.84 -36.2891 1647.45" stroke="url(#paint84_linear)" stroke-miterlimit="10"/>
<path opacity="0.1" d="M746.631 955.555C754.506 1007.18 742.145 1060.86 707.932 1100.99C664.5 1151.95 594 1164.96 534.016 1190.04C467.336 1217.93 403.283 1254.83 348.514 1302.3C280.863 1360.76 229.863 1431.12 172.916 1496.05C115.266 1561.81 46.5584 1633.36 -36.7456 1670.76" stroke="url(#paint85_linear)" stroke-miterlimit="10"/>
</g>
</g>
<defs>
<linearGradient id="paint0_linear" x1="374.225" y1="-313.121" x2="374.225" y2="1.07986" gradientUnits="userSpaceOnUse">
<stop stop-color="#07627C"/>
<stop offset="1" stop-color="#07627C" stop-opacity="0"/>
</linearGradient>
<linearGradient id="paint1_linear" x1="373.997" y1="-289.794" x2="373.997" y2="12.4914" gradientUnits="userSpaceOnUse">
<stop stop-color="#07627C"/>
<stop offset="1" stop-color="#07627C" stop-opacity="0"/>
</linearGradient>
<linearGradient id="paint2_linear" x1="373.775" y1="-266.442" x2="373.775" y2="23.8874" gradientUnits="userSpaceOnUse">
<stop stop-color="#07627C"/>
<stop offset="1" stop-color="#07627C" stop-opacity="0"/>
</linearGradient>
<linearGradient id="paint3_linear" x1="373.557" y1="-243.103" x2="373.557" y2="35.3046" gradientUnits="userSpaceOnUse">
<stop stop-color="#07627C"/>
<stop offset="1" stop-color="#07627C" stop-opacity="0"/>
</linearGradient>
<linearGradient id="paint4_linear" x1="373.34" y1="-219.731" x2="373.34" y2="46.744" gradientUnits="userSpaceOnUse">
<stop stop-color="#07627C"/>
<stop offset="1" stop-color="#07627C" stop-opacity="0"/>
</linearGradient>
<linearGradient id="paint5_linear" x1="373.124" y1="-196.418" x2="373.124" y2="58.1899" gradientUnits="userSpaceOnUse">
<stop stop-color="#07627C"/>
<stop offset="1" stop-color="#07627C" stop-opacity="0"/>
</linearGradient>
<linearGradient id="paint6_linear" x1="372.894" y1="-173.098" x2="372.894" y2="69.6577" gradientUnits="userSpaceOnUse">
<stop stop-color="#07627C"/>
<stop offset="1" stop-color="#07627C" stop-opacity="0"/>
</linearGradient>
<linearGradient id="paint7_linear" x1="372.687" y1="-149.739" x2="372.687" y2="81.1496" gradientUnits="userSpaceOnUse">
<stop stop-color="#07627C"/>
<stop offset="1" stop-color="#07627C" stop-opacity="0"/>
</linearGradient>
<linearGradient id="paint8_linear" x1="372.468" y1="-126.4" x2="372.468" y2="92.6679" gradientUnits="userSpaceOnUse">
<stop stop-color="#07627C"/>
<stop offset="1" stop-color="#07627C" stop-opacity="0"/>
</linearGradient>
<linearGradient id="paint9_linear" x1="372.251" y1="-103.061" x2="372.251" y2="104.207" gradientUnits="userSpaceOnUse">
<stop stop-color="#07627C"/>
<stop offset="1" stop-color="#07627C" stop-opacity="0"/>
</linearGradient>
<linearGradient id="paint10_linear" x1="372.033" y1="-79.7218" x2="372.033" y2="115.769" gradientUnits="userSpaceOnUse">
<stop stop-color="#07627C"/>
<stop offset="1" stop-color="#07627C" stop-opacity="0"/>
</linearGradient>
<linearGradient id="paint11_linear" x1="371.819" y1="-56.4022" x2="371.819" y2="127.368" gradientUnits="userSpaceOnUse">
<stop stop-color="#07627C"/>
<stop offset="1" stop-color="#07627C" stop-opacity="0"/>
</linearGradient>
<linearGradient id="paint12_linear" x1="371.596" y1="-33.037" x2="371.596" y2="138.982" gradientUnits="userSpaceOnUse">
<stop stop-color="#07627C"/>
<stop offset="1" stop-color="#07627C" stop-opacity="0"/>
</linearGradient>
<linearGradient id="paint13_linear" x1="371.38" y1="-9.69794" x2="371.38" y2="150.636" gradientUnits="userSpaceOnUse">
<stop stop-color="#07627C"/>
<stop offset="1" stop-color="#07627C" stop-opacity="0"/>
</linearGradient>
<linearGradient id="paint14_linear" x1="371.162" y1="13.6415" x2="371.162" y2="162.325" gradientUnits="userSpaceOnUse">
<stop stop-color="#07627C"/>
<stop offset="1" stop-color="#07627C" stop-opacity="0"/>
</linearGradient>
<linearGradient id="paint15_linear" x1="370.946" y1="36.9676" x2="370.946" y2="174.051" gradientUnits="userSpaceOnUse">
<stop stop-color="#07627C"/>
<stop offset="1" stop-color="#07627C" stop-opacity="0"/>
</linearGradient>
<linearGradient id="paint16_linear" x1="370.727" y1="60.2939" x2="370.727" y2="185.808" gradientUnits="userSpaceOnUse">
<stop stop-color="#07627C"/>
<stop offset="1" stop-color="#07627C" stop-opacity="0"/>
</linearGradient>
<linearGradient id="paint17_linear" x1="370.511" y1="83.6591" x2="370.511" y2="197.635" gradientUnits="userSpaceOnUse">
<stop stop-color="#07627C"/>
<stop offset="1" stop-color="#07627C" stop-opacity="0"/>
</linearGradient>
<linearGradient id="paint18_linear" x1="370.293" y1="106.998" x2="370.293" y2="213.557" gradientUnits="userSpaceOnUse">
<stop stop-color="#07627C"/>
<stop offset="1" stop-color="#07627C" stop-opacity="0"/>
</linearGradient>
<linearGradient id="paint19_linear" x1="370.071" y1="130.377" x2="370.071" y2="230.273" gradientUnits="userSpaceOnUse">
<stop stop-color="#07627C"/>
<stop offset="1" stop-color="#07627C" stop-opacity="0"/>
</linearGradient>
<linearGradient id="paint20_linear" x1="369.859" y1="153.683" x2="369.859" y2="247.005" gradientUnits="userSpaceOnUse">
<stop stop-color="#07627C"/>
<stop offset="1" stop-color="#07627C" stop-opacity="0"/>
</linearGradient>
<linearGradient id="paint21_linear" x1="369.643" y1="177.022" x2="369.643" y2="263.813" gradientUnits="userSpaceOnUse">
<stop stop-color="#07627C"/>
<stop offset="1" stop-color="#07627C" stop-opacity="0"/>
</linearGradient>
<linearGradient id="paint22_linear" x1="369.435" y1="200.362" x2="369.435" y2="280.69" gradientUnits="userSpaceOnUse">
<stop stop-color="#07627C"/>
<stop offset="1" stop-color="#07627C" stop-opacity="0"/>
</linearGradient>
<linearGradient id="paint23_linear" x1="369.218" y1="223.733" x2="369.218" y2="297.612" gradientUnits="userSpaceOnUse">
<stop stop-color="#07627C"/>
<stop offset="1" stop-color="#07627C" stop-opacity="0"/>
</linearGradient>
<linearGradient id="paint24_linear" x1="368.997" y1="247.04" x2="368.997" y2="314.596" gradientUnits="userSpaceOnUse">
<stop stop-color="#07627C"/>
<stop offset="1" stop-color="#07627C" stop-opacity="0"/>
</linearGradient>
<linearGradient id="paint25_linear" x1="368.765" y1="270.379" x2="368.765" y2="331.654" gradientUnits="userSpaceOnUse">
<stop stop-color="#07627C"/>
<stop offset="1" stop-color="#07627C" stop-opacity="0"/>
</linearGradient>
<linearGradient id="paint26_linear" x1="368.574" y1="292.525" x2="368.574" y2="348.763" gradientUnits="userSpaceOnUse">
<stop stop-color="#07627C"/>
<stop offset="1" stop-color="#07627C" stop-opacity="0"/>
</linearGradient>
<linearGradient id="paint27_linear" x1="368.348" y1="303.765" x2="368.348" y2="366.009" gradientUnits="userSpaceOnUse">
<stop stop-color="#07627C"/>
<stop offset="1" stop-color="#07627C" stop-opacity="0"/>
</linearGradient>
<linearGradient id="paint28_linear" x1="368.129" y1="314.998" x2="368.129" y2="383.36" gradientUnits="userSpaceOnUse">
<stop stop-color="#07627C"/>
<stop offset="1" stop-color="#07627C" stop-opacity="0"/>
</linearGradient>
<linearGradient id="paint29_linear" x1="367.922" y1="326.237" x2="367.922" y2="400.782" gradientUnits="userSpaceOnUse">
<stop stop-color="#07627C"/>
<stop offset="1" stop-color="#07627C" stop-opacity="0"/>
</linearGradient>
<linearGradient id="paint30_linear" x1="367.673" y1="337.476" x2="367.673" y2="418.367" gradientUnits="userSpaceOnUse">
<stop stop-color="#07627C"/>
<stop offset="1" stop-color="#07627C" stop-opacity="0"/>
</linearGradient>
<linearGradient id="paint31_linear" x1="367.48" y1="348.716" x2="367.48" y2="436.097" gradientUnits="userSpaceOnUse">
<stop stop-color="#07627C"/>
<stop offset="1" stop-color="#07627C" stop-opacity="0"/>
</linearGradient>
<linearGradient id="paint32_linear" x1="367.263" y1="359.948" x2="367.263" y2="454.047" gradientUnits="userSpaceOnUse">
<stop stop-color="#07627C"/>
<stop offset="1" stop-color="#07627C" stop-opacity="0"/>
</linearGradient>
<linearGradient id="paint33_linear" x1="367.05" y1="371.188" x2="367.05" y2="472.239" gradientUnits="userSpaceOnUse">
<stop stop-color="#07627C"/>
<stop offset="1" stop-color="#07627C" stop-opacity="0"/>
</linearGradient>
<linearGradient id="paint34_linear" x1="366.836" y1="382.427" x2="366.836" y2="490.857" gradientUnits="userSpaceOnUse">
<stop stop-color="#07627C"/>
<stop offset="1" stop-color="#07627C" stop-opacity="0"/>
</linearGradient>
<linearGradient id="paint35_linear" x1="366.619" y1="393.667" x2="366.619" y2="510.565" gradientUnits="userSpaceOnUse">
<stop stop-color="#07627C"/>
<stop offset="1" stop-color="#07627C" stop-opacity="0"/>
</linearGradient>
<linearGradient id="paint36_linear" x1="366.389" y1="404.899" x2="366.389" y2="530.279" gradientUnits="userSpaceOnUse">
<stop stop-color="#07627C"/>
<stop offset="1" stop-color="#07627C" stop-opacity="0"/>
</linearGradient>
<linearGradient id="paint37_linear" x1="366.196" y1="416.139" x2="366.196" y2="551.53" gradientUnits="userSpaceOnUse">
<stop stop-color="#07627C"/>
<stop offset="1" stop-color="#07627C" stop-opacity="0"/>
</linearGradient>
<linearGradient id="paint38_linear" x1="365.972" y1="427.378" x2="365.972" y2="574.12" gradientUnits="userSpaceOnUse">
<stop stop-color="#07627C"/>
<stop offset="1" stop-color="#07627C" stop-opacity="0"/>
</linearGradient>
<linearGradient id="paint39_linear" x1="365.758" y1="438.617" x2="365.758" y2="597.184" gradientUnits="userSpaceOnUse">
<stop stop-color="#07627C"/>
<stop offset="1" stop-color="#07627C" stop-opacity="0"/>
</linearGradient>
<linearGradient id="paint40_linear" x1="365.536" y1="449.857" x2="365.536" y2="620.507" gradientUnits="userSpaceOnUse">
<stop stop-color="#07627C"/>
<stop offset="1" stop-color="#07627C" stop-opacity="0"/>
</linearGradient>
<linearGradient id="paint41_linear" x1="365.316" y1="461.089" x2="365.316" y2="643.839" gradientUnits="userSpaceOnUse">
<stop stop-color="#07627C"/>
<stop offset="1" stop-color="#07627C" stop-opacity="0"/>
</linearGradient>
<linearGradient id="paint42_linear" x1="365.111" y1="472.316" x2="365.111" y2="667.153" gradientUnits="userSpaceOnUse">
<stop stop-color="#07627C"/>
<stop offset="1" stop-color="#07627C" stop-opacity="0"/>
</linearGradient>
<linearGradient id="paint43_linear" x1="364.901" y1="483.568" x2="364.901" y2="690.524" gradientUnits="userSpaceOnUse">
<stop stop-color="#07627C"/>
<stop offset="1" stop-color="#07627C" stop-opacity="0"/>
</linearGradient>
<linearGradient id="paint44_linear" x1="364.695" y1="494.807" x2="364.695" y2="713.844" gradientUnits="userSpaceOnUse">
<stop stop-color="#07627C"/>
<stop offset="1" stop-color="#07627C" stop-opacity="0"/>
</linearGradient>
<linearGradient id="paint45_linear" x1="364.471" y1="506.04" x2="364.471" y2="737.183" gradientUnits="userSpaceOnUse">
<stop stop-color="#07627C"/>
<stop offset="1" stop-color="#07627C" stop-opacity="0"/>
</linearGradient>
<linearGradient id="paint46_linear" x1="364.244" y1="517.299" x2="364.244" y2="760.549" gradientUnits="userSpaceOnUse">
<stop stop-color="#07627C"/>
<stop offset="1" stop-color="#07627C" stop-opacity="0"/>
</linearGradient>
<linearGradient id="paint47_linear" x1="364.044" y1="528.519" x2="364.044" y2="783.868" gradientUnits="userSpaceOnUse">
<stop stop-color="#07627C"/>
<stop offset="1" stop-color="#07627C" stop-opacity="0"/>
</linearGradient>
<linearGradient id="paint48_linear" x1="363.833" y1="539.758" x2="363.833" y2="807.214" gradientUnits="userSpaceOnUse">
<stop stop-color="#07627C"/>
<stop offset="1" stop-color="#07627C" stop-opacity="0"/>
</linearGradient>
<linearGradient id="paint49_linear" x1="363.621" y1="550.991" x2="363.621" y2="830.553" gradientUnits="userSpaceOnUse">
<stop stop-color="#07627C"/>
<stop offset="1" stop-color="#07627C" stop-opacity="0"/>
</linearGradient>
<linearGradient id="paint50_linear" x1="363.412" y1="562.23" x2="363.412" y2="853.86" gradientUnits="userSpaceOnUse">
<stop stop-color="#07627C"/>
<stop offset="1" stop-color="#07627C" stop-opacity="0"/>
</linearGradient>
<linearGradient id="paint51_linear" x1="363.191" y1="573.47" x2="363.191" y2="877.225" gradientUnits="userSpaceOnUse">
<stop stop-color="#07627C"/>
<stop offset="1" stop-color="#07627C" stop-opacity="0"/>
</linearGradient>
<linearGradient id="paint52_linear" x1="363.006" y1="584.709" x2="363.006" y2="900.564" gradientUnits="userSpaceOnUse">
<stop stop-color="#07627C"/>
<stop offset="1" stop-color="#07627C" stop-opacity="0"/>
</linearGradient>
<linearGradient id="paint53_linear" x1="362.769" y1="595.948" x2="362.769" y2="923.91" gradientUnits="userSpaceOnUse">
<stop stop-color="#07627C"/>
<stop offset="1" stop-color="#07627C" stop-opacity="0"/>
</linearGradient>
<linearGradient id="paint54_linear" x1="362.546" y1="607.181" x2="362.546" y2="947.249" gradientUnits="userSpaceOnUse">
<stop stop-color="#07627C"/>
<stop offset="1" stop-color="#07627C" stop-opacity="0"/>
</linearGradient>
<linearGradient id="paint55_linear" x1="362.355" y1="618.421" x2="362.355" y2="970.582" gradientUnits="userSpaceOnUse">
<stop stop-color="#07627C"/>
<stop offset="1" stop-color="#07627C" stop-opacity="0"/>
</linearGradient>
<linearGradient id="paint56_linear" x1="362.132" y1="629.66" x2="362.132" y2="993.928" gradientUnits="userSpaceOnUse">
<stop stop-color="#07627C"/>
<stop offset="1" stop-color="#07627C" stop-opacity="0"/>
</linearGradient>
<linearGradient id="paint57_linear" x1="361.913" y1="640.899" x2="361.913" y2="1017.27" gradientUnits="userSpaceOnUse">
<stop stop-color="#07627C"/>
<stop offset="1" stop-color="#07627C" stop-opacity="0"/>
</linearGradient>
<linearGradient id="paint58_linear" x1="361.706" y1="652.132" x2="361.706" y2="1040.59" gradientUnits="userSpaceOnUse">
<stop stop-color="#07627C"/>
<stop offset="1" stop-color="#07627C" stop-opacity="0"/>
</linearGradient>
<linearGradient id="paint59_linear" x1="361.496" y1="663.371" x2="361.496" y2="1063.95" gradientUnits="userSpaceOnUse">
<stop stop-color="#07627C"/>
<stop offset="1" stop-color="#07627C" stop-opacity="0"/>
</linearGradient>
<linearGradient id="paint60_linear" x1="361.301" y1="674.611" x2="361.301" y2="1087.26" gradientUnits="userSpaceOnUse">
<stop stop-color="#07627C"/>
<stop offset="1" stop-color="#07627C" stop-opacity="0"/>
</linearGradient>
<linearGradient id="paint61_linear" x1="361.066" y1="685.85" x2="361.066" y2="1110.63" gradientUnits="userSpaceOnUse">
<stop stop-color="#07627C"/>
<stop offset="1" stop-color="#07627C" stop-opacity="0"/>
</linearGradient>
<linearGradient id="paint62_linear" x1="360.86" y1="697.083" x2="360.86" y2="1134.03" gradientUnits="userSpaceOnUse">
<stop stop-color="#07627C"/>
<stop offset="1" stop-color="#07627C" stop-opacity="0"/>
</linearGradient>
<linearGradient id="paint63_linear" x1="360.652" y1="708.316" x2="360.652" y2="1157.31" gradientUnits="userSpaceOnUse">
<stop stop-color="#07627C"/>
<stop offset="1" stop-color="#07627C" stop-opacity="0"/>
</linearGradient>
<linearGradient id="paint64_linear" x1="360.445" y1="719.562" x2="360.445" y2="1180.63" gradientUnits="userSpaceOnUse">
<stop stop-color="#07627C"/>
<stop offset="1" stop-color="#07627C" stop-opacity="0"/>
</linearGradient>
<linearGradient id="paint65_linear" x1="360.257" y1="730.801" x2="360.257" y2="1203.99" gradientUnits="userSpaceOnUse">
<stop stop-color="#07627C"/>
<stop offset="1" stop-color="#07627C" stop-opacity="0"/>
</linearGradient>
<linearGradient id="paint66_linear" x1="360.02" y1="742.04" x2="360.02" y2="1227.33" gradientUnits="userSpaceOnUse">
<stop stop-color="#07627C"/>
<stop offset="1" stop-color="#07627C" stop-opacity="0"/>
</linearGradient>
<linearGradient id="paint67_linear" x1="359.808" y1="753.299" x2="359.808" y2="1250.73" gradientUnits="userSpaceOnUse">
<stop stop-color="#07627C"/>
<stop offset="1" stop-color="#07627C" stop-opacity="0"/>
</linearGradient>
<linearGradient id="paint68_linear" x1="359.597" y1="764.512" x2="359.597" y2="1274" gradientUnits="userSpaceOnUse">
<stop stop-color="#07627C"/>
<stop offset="1" stop-color="#07627C" stop-opacity="0"/>
</linearGradient>
<linearGradient id="paint69_linear" x1="359.391" y1="775.751" x2="359.391" y2="1297.32" gradientUnits="userSpaceOnUse">
<stop stop-color="#07627C"/>
<stop offset="1" stop-color="#07627C" stop-opacity="0"/>
</linearGradient>
<linearGradient id="paint70_linear" x1="359.197" y1="786.991" x2="359.197" y2="1320.69" gradientUnits="userSpaceOnUse">
<stop stop-color="#07627C"/>
<stop offset="1" stop-color="#07627C" stop-opacity="0"/>
</linearGradient>
<linearGradient id="paint71_linear" x1="358.984" y1="798.224" x2="358.984" y2="1344.03" gradientUnits="userSpaceOnUse">
<stop stop-color="#07627C"/>
<stop offset="1" stop-color="#07627C" stop-opacity="0"/>
</linearGradient>
<linearGradient id="paint72_linear" x1="358.764" y1="809.463" x2="358.764" y2="1367.4" gradientUnits="userSpaceOnUse">
<stop stop-color="#07627C"/>
<stop offset="1" stop-color="#07627C" stop-opacity="0"/>
</linearGradient>
<linearGradient id="paint73_linear" x1="358.575" y1="820.702" x2="358.575" y2="1390.71" gradientUnits="userSpaceOnUse">
<stop stop-color="#07627C"/>
<stop offset="1" stop-color="#07627C" stop-opacity="0"/>
</linearGradient>
<linearGradient id="paint74_linear" x1="358.347" y1="831.942" x2="358.347" y2="1414.05" gradientUnits="userSpaceOnUse">
<stop stop-color="#07627C"/>
<stop offset="1" stop-color="#07627C" stop-opacity="0"/>
</linearGradient>
<linearGradient id="paint75_linear" x1="358.141" y1="843.175" x2="358.141" y2="1437.41" gradientUnits="userSpaceOnUse">
<stop stop-color="#07627C"/>
<stop offset="1" stop-color="#07627C" stop-opacity="0"/>
</linearGradient>
<linearGradient id="paint76_linear" x1="357.933" y1="854.414" x2="357.933" y2="1460.74" gradientUnits="userSpaceOnUse">
<stop stop-color="#07627C"/>
<stop offset="1" stop-color="#07627C" stop-opacity="0"/>
</linearGradient>
<linearGradient id="paint77_linear" x1="357.728" y1="865.653" x2="357.728" y2="1484.07" gradientUnits="userSpaceOnUse">
<stop stop-color="#07627C"/>
<stop offset="1" stop-color="#07627C" stop-opacity="0"/>
</linearGradient>
<linearGradient id="paint78_linear" x1="357.523" y1="876.893" x2="357.523" y2="1507.42" gradientUnits="userSpaceOnUse">
<stop stop-color="#07627C"/>
<stop offset="1" stop-color="#07627C" stop-opacity="0"/>
</linearGradient>
<linearGradient id="paint79_linear" x1="357.314" y1="888.132" x2="357.314" y2="1530.75" gradientUnits="userSpaceOnUse">
<stop stop-color="#07627C"/>
<stop offset="1" stop-color="#07627C" stop-opacity="0"/>
</linearGradient>
<linearGradient id="paint80_linear" x1="357.107" y1="899.365" x2="357.107" y2="1554.11" gradientUnits="userSpaceOnUse">
<stop stop-color="#07627C"/>
<stop offset="1" stop-color="#07627C" stop-opacity="0"/>
</linearGradient>
<linearGradient id="paint81_linear" x1="356.904" y1="910.604" x2="356.904" y2="1577.43" gradientUnits="userSpaceOnUse">
<stop stop-color="#07627C"/>
<stop offset="1" stop-color="#07627C" stop-opacity="0"/>
</linearGradient>
<linearGradient id="paint82_linear" x1="356.697" y1="921.843" x2="356.697" y2="1600.77" gradientUnits="userSpaceOnUse">
<stop stop-color="#07627C"/>
<stop offset="1" stop-color="#07627C" stop-opacity="0"/>
</linearGradient>
<linearGradient id="paint83_linear" x1="356.481" y1="933.083" x2="356.481" y2="1624.11" gradientUnits="userSpaceOnUse">
<stop stop-color="#07627C"/>
<stop offset="1" stop-color="#07627C" stop-opacity="0"/>
</linearGradient>
<linearGradient id="paint84_linear" x1="356.304" y1="944.316" x2="356.304" y2="1647.45" gradientUnits="userSpaceOnUse">
<stop stop-color="#07627C"/>
<stop offset="1" stop-color="#07627C" stop-opacity="0"/>
</linearGradient>
<linearGradient id="paint85_linear" x1="356.086" y1="955.555" x2="356.086" y2="1670.76" gradientUnits="userSpaceOnUse">
<stop stop-color="#07627C"/>
<stop offset="1" stop-color="#07627C" stop-opacity="0"/>
</linearGradient>
</defs>
</svg>
