<?xml version="1.0" encoding="utf-8"?>
<!-- Generator: Adobe Illustrator 27.0.1, SVG Export Plug-In . SVG Version: 6.00 Build 0)  -->
<svg version="1.1" id="Ebene_1" xmlns="http://www.w3.org/2000/svg" xmlns:xlink="http://www.w3.org/1999/xlink" x="0px" y="0px"
	 viewBox="0 0 141.7 39" style="enable-background:new 0 0 141.7 39;" xml:space="preserve">
<style type="text/css">
	.st0{fill:#17427F;}
</style>
<g>
	<path class="st0" d="M55.9,16.7v-4.1c0-0.6,0-2,0-2.5c-0.2,0.4-0.5,1.2-0.8,1.9l-2.3,4.8l-2.3-4.8c-0.3-0.6-0.6-1.5-0.8-1.9
		c0,0.4,0,1.9,0,2.5v4.1h-2.2V5.4h2.2l2.4,5.1c0.3,0.6,0.6,1.5,0.8,1.9c0.1-0.4,0.5-1.2,0.8-1.9l2.3-5.1h2.2v11.3H55.9z"/>
</g>
<polygon class="st0" points="61.3,16.7 61.3,5.4 68.9,5.4 68.9,7.6 63.5,7.6 63.5,9.7 66.9,9.7 66.9,11.9 63.5,11.9 63.5,14.5 
	69.1,14.5 69.1,16.7 "/>
<polygon class="st0" points="78.8,16.7 78.8,12 74.2,12 74.2,16.7 71.9,16.7 71.9,5.4 74.2,5.4 74.2,9.7 78.8,9.7 78.8,5.4 81,5.4 
	81,16.7 "/>
<g>
	<path class="st0" d="M89.1,7.6h-2.9v2.9h2.9c1,0,1.6-0.5,1.6-1.5C90.7,8,90.1,7.6,89.1,7.6 M90.4,16.7l-2-4.1h-2.3v4.1h-2.3V5.4
		h5.2C91.2,5.4,93,6.6,93,9c0,1.7-0.7,2.8-2.2,3.3l2.2,4.4H90.4z"/>
	<path class="st0" d="M50.4,23.3h-1.6v9h1.7c2.4,0,3.9-1.3,3.9-4.5C54.3,24.9,53,23.3,50.4,23.3 M50.2,33.5h-2.8V22.2h3
		c3,0,5.1,1.7,5.1,5.6C55.6,31.8,53.2,33.5,50.2,33.5"/>
</g>
<polygon class="st0" points="57.7,33.5 57.7,22.2 64.5,22.2 64.5,23.3 59,23.3 59,26.9 62.2,26.9 62.2,28 59,28 59,32.3 64.8,32.3 
	64.8,33.5 "/>
<g>
	<path class="st0" d="M76,33.5v-7.6v-1.2c-0.1,0.4-0.4,1.3-0.7,1.9l-3,7.3l-3-7.3c-0.2-0.6-0.5-1.4-0.7-1.9v1.2v7.6h-1.2V22.2h1.4
		l2.7,6.7c0.3,0.7,0.7,1.7,0.8,2.2c0.1-0.5,0.6-1.5,0.8-2.2l2.7-6.7h1.4v11.3H76z"/>
	<path class="st0" d="M84.3,23.2c-1.9,0-3.4,1.8-3.4,4.7c0,2.8,1.5,4.7,3.4,4.7c1.9,0,3.4-1.8,3.4-4.6C87.7,25,86.3,23.2,84.3,23.2
		 M84.3,33.6c-2.8,0-4.7-2.4-4.7-5.8c0-3.4,1.9-5.8,4.7-5.8c2.8,0,4.7,2.4,4.7,5.8C89,31.2,87.1,33.6,84.3,33.6"/>
	<path class="st0" d="M98.1,33.5l-3.3-6l-2.1,2.8v3.2h-1.3V22.2h1.3v4.9v1.5c0.3-0.4,1.2-1.6,1.6-2.2l3.3-4.2h1.4l-3.3,4.2l3.9,7
		H98.1z"/>
	<path class="st0" d="M106.1,23.3h-3.2v4.2h3c1.7,0,2.5-0.4,2.5-2.1C108.4,24.1,107.6,23.3,106.1,23.3 M107,28.6l2.5,4.9H108
		l-2.4-4.8h-2.7v4.8h-1.3V22.2h4.5c2,0,3.5,1,3.5,3.2C109.6,27.1,108.6,28.2,107,28.6"/>
	<path class="st0" d="M116.4,25.8c-0.3-0.7-0.6-1.8-0.7-2.2c-0.1,0.4-0.4,1.5-0.7,2.3l-1.2,3.7h3.9L116.4,25.8z M118.9,33.5l-1-2.9
		h-4.7l-1,2.9h-1.3l3.9-11.3h1.4l3.9,11.3H118.9z"/>
</g>
<polygon class="st0" points="124.9,23.3 124.9,33.5 123.6,33.5 123.6,23.3 120.3,23.3 120.3,22.2 128.2,22.2 128.2,23.3 "/>
<rect x="130.5" y="22.2" class="st0" width="1.3" height="11.3"/>
<polygon class="st0" points="134.7,22.2 134.7,33.5 141.7,33.5 141.7,32.3 135.9,32.3 135.9,28 139.2,28 139.2,26.9 135.9,26.9 
	135.9,23.3 141.5,23.3 141.5,22.2 "/>
<path class="st0" d="M0,0v39h39V0H0z M17.5,33.5H9.1V28h8.4V33.5z M18.2,14.3l-0.7,8.3H9.1l-0.7-8.2v-9h9.7V14.3z"/>
</svg>
