<svg width="720" height="405" viewBox="0 0 720 405" fill="none" xmlns="http://www.w3.org/2000/svg">
<g opacity="0.6">
<rect x="435.142" y="405.491" width="285.111" height="405.491" transform="rotate(180 435.142 405.491)" fill="white"/>
<rect x="323.632" y="247.35" width="173.347" height="247.35" transform="rotate(180 323.632 247.35)" fill="#F1F5F9"/>
<rect x="435.142" y="405.491" width="111.371" height="158.394" transform="rotate(180 435.142 405.491)" fill="#ECF2F8"/>
<rect x="367.222" y="309.187" width="43.5016" height="61.8689" transform="rotate(180 367.222 309.187)" fill="#DBE1E7"/>
<rect x="324.646" y="247.35" width="43.5016" height="61.8689" transform="rotate(180 324.646 247.35)" fill="#DBE1E7"/>
<rect width="285.111" height="405.491" transform="matrix(-1 0 0 1 285.111 0)" fill="white"/>
<rect width="173.347" height="247.35" transform="matrix(-1 0 0 1 173.601 158.141)" fill="#F1F5F9"/>
<rect width="111.371" height="158.394" transform="matrix(-1 0 0 1 285.111 0)" fill="#F1F5F9"/>
<rect width="43.5016" height="61.8689" transform="matrix(-1 0 0 1 217.191 96.3041)" fill="#DBE1E7"/>
<rect width="43.5016" height="61.8689" transform="matrix(-1 0 0 1 174.615 158.141)" fill="#DBE1E7"/>
<rect width="285.111" height="405.491" transform="matrix(-1 0 0 1 720 0)" fill="white"/>
<rect width="173.347" height="247.35" transform="matrix(-1 0 0 1 608.49 158.142)" fill="#F1F5F9"/>
<rect width="111.371" height="158.394" transform="matrix(-1 0 0 1 720 0)" fill="#F1F5F9"/>
<rect width="43.5016" height="61.8689" transform="matrix(-1 0 0 1 652.08 96.3041)" fill="#DBE1E7"/>
<rect width="43.5016" height="61.8689" transform="matrix(-1 0 0 1 609.503 158.142)" fill="#DBE1E7"/>
</g>
</svg>
