<svg width="614" height="104" viewBox="0 0 614 104" fill="none" xmlns="http://www.w3.org/2000/svg">
<path d="M49.9562 33.7534H63.5489L78.1225 86.0713H78.4027L87.9316 42.6137L80.785 42.1918V30.9407L108.951 30.9407V41.7699L104.327 42.0512C102.459 42.2387 101.197 43.3638 100.543 45.4265L87.231 101.682H67.0522L55.5614 59.7717H55.1411L43.2299 101.682H22.6307L8.47755 45.5671C8.01045 44.2545 7.49664 43.3638 6.93612 42.895C6.46901 42.4262 5.62823 42.1449 4.41376 42.0512L0.349976 41.7699L0.349976 30.9407L32.4399 30.9407V42.1918L24.5926 42.6137L34.2616 85.79H34.5419L49.9562 33.7534Z" fill="white"/>
<path d="M173.553 33.7534V86.0713C173.553 87.5714 173.786 88.6028 174.254 89.1653C174.814 89.7279 175.748 90.0561 177.056 90.1498L181.54 90.4311V101.682H159.26V93.5252L158.839 93.3845C154.168 100.135 147.769 103.511 139.641 103.511C130.112 103.511 123.059 100.463 118.481 94.369C113.904 88.2746 111.615 79.93 111.615 69.3352C111.615 56.5839 114.698 46.6454 120.864 39.5197C127.029 32.3939 136.278 28.8311 148.61 28.8311C156.55 28.8311 164.865 30.4719 173.553 33.7534ZM157.298 79.3206V42.895C154.682 41.6761 151.085 41.0667 146.508 41.0667C140.248 41.0667 135.718 43.5982 132.915 48.6612C130.112 53.7242 128.711 60.428 128.711 68.7726C128.711 83.9617 133.569 91.5562 143.285 91.5562C147.395 91.5562 150.758 90.3373 153.374 87.8996C155.99 85.3681 157.298 82.5084 157.298 79.3206Z" fill="white"/>
<path d="M195.804 85.9306V17.4393C195.804 15.9391 195.524 14.9078 194.963 14.3452C194.496 13.7827 193.609 13.4545 192.301 13.3607L187.396 13.0795V1.40639L212.34 1.40639V39.2384C217.197 32.3002 224.017 28.8311 232.799 28.8311C239.899 28.8311 245.364 30.8938 249.194 35.0192C253.118 39.0509 255.079 45.1452 255.079 53.3023L255.079 90.0092L263.067 90.4311V101.682H229.716V90.9937L234.34 90.5717C235.741 90.3842 236.769 90.0092 237.423 89.4466C238.077 88.7903 238.404 87.6183 238.404 85.9306V56.9589C238.404 52.0834 237.61 48.333 236.022 45.7078C234.527 43.0825 231.537 41.7699 227.053 41.7699C222.662 41.7699 219.113 43.1763 216.403 45.9891C213.788 48.7081 212.48 52.0366 212.48 55.9745L212.48 90.0092L220.467 90.4311V101.682H187.116V90.9937L191.74 90.5717C193.142 90.3842 194.169 90.0092 194.823 89.4466C195.477 88.7903 195.804 87.6183 195.804 85.9306Z" fill="white"/>
<path d="M296.363 1.40639V90.0092L304.351 90.4311V101.682H271V90.9937L275.624 90.5717C278.333 90.2905 279.688 88.7903 279.688 86.0713V16.7361C279.688 14.6734 278.52 13.5483 276.184 13.3607L271.28 13.0795V1.40639L296.363 1.40639Z" fill="white"/>
<path d="M315.333 97.4631V16.7361C315.333 14.5796 314.165 13.4545 311.829 13.3607L306.925 13.0795V1.40639L331.588 1.40639V34.7379C335.792 30.8 341.444 28.8311 348.544 28.8311C357.325 28.8311 364.285 31.8314 369.423 37.832C374.561 43.7388 377.13 52.0834 377.13 62.8658C377.13 89.9623 365.826 103.511 343.219 103.511C338.361 103.511 333.223 102.901 327.804 101.682C322.479 100.557 318.322 99.1507 315.333 97.4631ZM331.588 51.8959V88.3215C335.138 90.1967 339.248 91.1343 343.919 91.1343C354.569 91.1343 359.894 82.4615 359.894 65.116C359.894 49.2706 354.663 41.348 344.2 41.348C340.836 41.348 337.894 42.3324 335.371 44.3014C332.849 46.2703 331.588 48.8018 331.588 51.8959Z" fill="white"/>
<path d="M395.721 85.9306V46.9735C395.721 45.4734 395.44 44.442 394.88 43.8795C394.413 43.2232 393.525 42.8481 392.217 42.7544L386.332 42.3324V30.9407L410.014 30.9407V41.4886C411.695 37.832 414.311 34.8317 417.861 32.4877C421.411 30.0499 425.475 28.8311 430.053 28.8311C434.724 28.8311 439.161 29.8624 443.365 31.9251V52.8804L430.333 53.8649V47.3955C430.333 45.5203 429.866 44.3483 428.932 43.8795C427.904 43.4107 426.643 43.1763 425.148 43.1763C421.411 43.1763 418.328 44.5358 415.899 47.2548C413.564 49.8801 412.396 53.2554 412.396 57.3808V90.0092L424.587 90.5717V101.682L387.032 101.682V90.9937L391.657 90.5717C393.058 90.3842 394.086 90.0092 394.74 89.4466C395.394 88.7903 395.721 87.6183 395.721 85.9306Z" fill="white"/>
<path d="M477.124 30.9407V90.0092L485.112 90.4311V101.682H451.761V90.9937L456.385 90.5717C459.094 90.2905 460.449 88.7903 460.449 86.0713V46.9735C460.449 45.3796 460.169 44.3014 459.608 43.7388C459.141 43.1763 458.253 42.895 456.946 42.895L452.041 42.6137V30.9407L477.124 30.9407ZM459.468 18.8457C457.506 16.8767 456.525 14.3921 456.525 11.3918C456.525 8.39148 457.506 5.90685 459.468 3.9379C461.43 1.87519 463.999 0.843842 467.175 0.843842C470.351 0.843842 472.921 1.87519 474.882 3.9379C476.938 5.90685 477.965 8.39148 477.965 11.3918C477.965 14.3921 476.938 16.8767 474.882 18.8457C472.921 20.7209 470.351 21.6585 467.175 21.6585C463.999 21.6585 461.43 20.7209 459.468 18.8457Z" fill="white"/>
<path d="M528.398 28.8311C535.405 28.8311 540.963 30.5656 545.074 34.0347C549.184 37.4101 551.239 42.1918 551.239 48.3799C551.239 52.5054 550.352 56.162 548.577 59.3498C546.802 62.4439 544.606 64.8816 541.991 66.663C539.375 68.4445 536.199 69.8978 532.462 71.0229C526.203 72.8981 519.149 73.8356 511.302 73.8356C511.582 78.8049 513.124 82.8366 515.926 85.9306C518.729 88.9309 523.026 90.4311 528.818 90.4311C534.61 90.4311 540.403 88.3684 546.195 84.243L551.52 95.6348C549.651 97.3224 546.475 99.057 541.991 100.838C537.6 102.62 532.555 103.511 526.857 103.511C515.459 103.511 507.098 100.37 501.773 94.0877C496.448 87.7121 493.786 78.9924 493.786 67.9288C493.786 56.8652 496.822 47.583 502.894 40.0822C508.967 32.5815 517.468 28.8311 528.398 28.8311ZM521.952 61.0375C525.409 60.3812 528.585 59.0216 531.481 56.9589C534.377 54.8025 535.825 52.271 535.825 49.3644C535.825 43.6451 533.022 40.7854 527.417 40.7854C522.186 40.7854 518.168 42.895 515.366 47.1142C512.563 51.2396 511.022 56.2089 510.742 62.0219C514.852 61.9282 518.589 61.6 521.952 61.0375Z" fill="white"/>
<path d="M569.929 85.9306V42.7544H557.878V30.9407L569.929 30.9407V25.5964C569.929 16.4079 572.031 9.79787 576.235 5.76621C580.159 1.92207 585.904 0 593.471 0C601.038 0 607.765 1.64079 613.65 4.92238L609.586 16.1735C605.102 13.8295 600.898 12.6575 596.974 12.6575C593.051 12.6575 590.342 13.642 588.847 15.611C587.352 17.4862 586.605 20.3927 586.605 24.3306V30.9407H607.344V42.7544L586.605 42.7544V89.8685L598.376 90.4311V101.682L561.241 101.682V90.9937L565.865 90.5717C567.267 90.3842 568.294 90.0092 568.948 89.4466C569.602 88.7903 569.929 87.6183 569.929 85.9306Z" fill="white"/>
</svg>
